# xmcd CD database file
#
# Track frame offsets:
#	150
#	8662
#	24891
#	46392
#	65452
#	87350
#	104901
#	123562
#	150878
#	174205
#	201737
#	227141
#	257032
#	281075
#
# Disc length: 4157 seconds
#
# Revision: 0
# Processed by: cddbd v1.5.2PL0 Copyright (c) Steve Scherf et al.
# Submitted via: Feurio! 1.68 - http://www.feurio.com
#
DISCID=bb103b0e
DTITLE=Lucinda Williams - Caravan Of Dreams - Ft. Worth TX - March 13, 2001 1
DYEAR=1900
DGENRE=
TTITLE0=Band Intro
TTITLE1=Metal Firecracker
TTITLE2=Right In Time
TTITLE3=Lonely Girl
TTITLE4=Blue
TTITLE5=I Envy The Wind
TTITLE6=Reason To Cry
TTITLE7=Are You Down
TTITLE8=2 Cool 2 Be 4-Gotten
TTITLE9=Lake Chrarles Take One
TTITLE10=Lake Charles
TTITLE11=Out Of Touch
TTITLE12=Changed The Locks
TTITLE13=Essence
EXTD=
EXTT0=
EXTT1=
EXTT2=
EXTT3=
EXTT4=
EXTT5=
EXTT6=
EXTT7=
EXTT8=
EXTT9=
EXTT10=
EXTT11=
EXTT12=
EXTT13=
PLAYORDER=
